# Blender 4.1.1
# www.blender.org
mtllib candles.mtl
o candles
v -0.027793 -0.066650 -0.043990
v -0.027793 0.043960 -0.015444
v -0.006115 -0.066650 -0.035011
v -0.026300 0.043960 -0.014826
v 0.002864 -0.066650 -0.013333
v -0.025682 0.043960 -0.013333
v -0.006115 -0.066650 0.008344
v -0.026300 0.043960 -0.011841
v -0.027793 -0.066650 0.017323
v -0.027793 0.043960 -0.011222
v -0.049470 -0.066650 0.008344
v -0.029285 0.043960 -0.011841
v -0.058449 -0.066650 -0.013333
v -0.029903 0.043960 -0.013333
v -0.049470 -0.066650 -0.035011
v -0.029285 0.043960 -0.014826
v -0.006115 0.043960 -0.035011
v -0.027793 0.043960 -0.043990
v 0.002864 0.043960 -0.013333
v -0.006115 0.043960 0.008344
v -0.027793 0.043960 0.017323
v -0.049470 0.043960 0.008344
v -0.058449 0.043960 -0.013333
v -0.049470 0.043960 -0.035011
v -0.026300 0.063836 -0.014826
v -0.027793 0.063836 -0.015444
v -0.025682 0.063836 -0.013333
v -0.026300 0.063836 -0.011841
v -0.027793 0.063836 -0.011222
v -0.029285 0.063836 -0.011841
v -0.029903 0.063836 -0.013333
v -0.029285 0.063836 -0.014826
v 0.019098 -0.066535 0.007602
v 0.023566 0.010960 -0.011892
v 0.005700 -0.066535 -0.001923
v 0.022643 0.010960 -0.012548
v 0.002961 -0.066535 -0.018132
v 0.022455 0.010960 -0.013664
v 0.012486 -0.066535 -0.031530
v 0.023111 0.010960 -0.014586
v 0.028695 -0.066535 -0.034269
v 0.024227 0.010960 -0.014775
v 0.042093 -0.066535 -0.024744
v 0.025149 0.010960 -0.014119
v 0.044832 -0.066535 -0.008535
v 0.025338 0.010960 -0.013003
v 0.035307 -0.066535 0.004863
v 0.024682 0.010960 -0.012080
v 0.005700 0.010960 -0.001923
v 0.019098 0.010960 0.007602
v 0.002961 0.010960 -0.018132
v 0.012486 0.010960 -0.031530
v 0.028695 0.010960 -0.034269
v 0.042093 0.010960 -0.024744
v 0.044832 0.010960 -0.008535
v 0.035307 0.010960 0.004863
v 0.022643 0.024885 -0.012548
v 0.023566 0.024885 -0.011892
v 0.022455 0.024885 -0.013664
v 0.023111 0.024885 -0.014586
v 0.024227 0.024885 -0.014775
v 0.025149 0.024885 -0.014119
v 0.025338 0.024885 -0.013003
v 0.024682 0.024885 -0.012080
v 0.001090 -0.066257 0.038911
v 0.003703 -0.002421 0.027510
v -0.006747 -0.066257 0.033340
v 0.003164 -0.002421 0.027126
v -0.008348 -0.066257 0.023860
v 0.003053 -0.002421 0.026473
v -0.002777 -0.066257 0.016024
v 0.003437 -0.002421 0.025934
v 0.006703 -0.066257 0.014422
v 0.004090 -0.002421 0.025824
v 0.014539 -0.066257 0.019993
v 0.004629 -0.002421 0.026207
v 0.016141 -0.066257 0.029473
v 0.004739 -0.002421 0.026860
v 0.010570 -0.066257 0.037309
v 0.004356 -0.002421 0.027399
v -0.006747 -0.002421 0.033340
v 0.001090 -0.002421 0.038911
v -0.008348 -0.002421 0.023860
v -0.002777 -0.002421 0.016024
v 0.006703 -0.002421 0.014422
v 0.014539 -0.002421 0.019993
v 0.016141 -0.002421 0.029473
v 0.010570 -0.002421 0.037309
v 0.003164 0.005724 0.027126
v 0.003703 0.005724 0.027510
v 0.003053 0.005724 0.026473
v 0.003437 0.005724 0.025934
v 0.004090 0.005724 0.025824
v 0.004629 0.005724 0.026207
v 0.004739 0.005724 0.026860
v 0.004356 0.005724 0.027399
vn 0.3827 -0.0000 -0.9239
vn 0.9239 -0.0000 -0.3827
vn 0.9239 -0.0000 0.3827
vn 0.3827 -0.0000 0.9239
vn -0.3827 -0.0000 0.9239
vn -0.9239 -0.0000 0.3827
vn -0.3827 -0.0000 -0.9239
vn -0.9239 -0.0000 -0.3827
vn -0.0000 -1.0000 -0.0000
vn -0.0000 1.0000 -0.0000
vn -0.5794 -0.0000 0.8150
vn -0.9860 -0.0000 0.1666
vn -0.8150 -0.0000 -0.5794
vn -0.1666 -0.0000 -0.9860
vn 0.5794 -0.0000 -0.8150
vn 0.9860 -0.0000 -0.1666
vn 0.1666 -0.0000 0.9860
vn 0.8150 -0.0000 0.5794
vt 0.457862 0.795949
vt 0.457862 0.802639
vt 0.456190 0.802639
vt 0.456190 0.795949
vt 0.454517 0.802639
vt 0.454517 0.795949
vt 0.452844 0.802639
vt 0.452844 0.795949
vt 0.451172 0.802639
vt 0.451172 0.795949
vt 0.449499 0.802639
vt 0.449499 0.795949
vt 0.447827 0.802639
vt 0.447827 0.795949
vt 0.551342 0.798684
vt 0.551186 0.798619
vt 0.446154 0.802639
vt 0.446154 0.795949
vt 0.444482 0.802639
vt 0.444482 0.795949
vt 0.454517 0.795815
vt 0.456788 0.794874
vt 0.457728 0.792604
vt 0.456788 0.790333
vt 0.454517 0.789392
vt 0.452246 0.790333
vt 0.451306 0.792604
vt 0.452246 0.794874
vt 0.447827 0.792825
vt 0.447983 0.792760
vt 0.450098 0.794874
vt 0.447827 0.795815
vt 0.448048 0.792604
vt 0.451038 0.792604
vt 0.447983 0.792447
vt 0.450098 0.790333
vt 0.447827 0.792383
vt 0.447827 0.789392
vt 0.447670 0.792447
vt 0.445556 0.790333
vt 0.447606 0.792604
vt 0.444616 0.792604
vt 0.447670 0.792760
vt 0.445556 0.794874
vt 0.551499 0.798619
vt 0.551121 0.798463
vt 0.551186 0.798307
vt 0.551342 0.798242
vt 0.551499 0.798307
vt 0.551564 0.798463
s 0
usemtl texture
f 1/1/1 18/2/1 17/3/1 3/4/1
f 3/4/2 17/3/2 19/5/2 5/6/2
f 5/6/3 19/5/3 20/7/3 7/8/3
f 7/8/4 20/7/4 21/9/4 9/10/4
f 9/10/5 21/9/5 22/11/5 11/12/5
f 11/12/6 22/11/6 23/13/6 13/14/6
f 2/15/7 16/16/7 32/16/7 26/15/7
f 13/14/8 23/13/8 24/17/8 15/18/8
f 15/18/7 24/17/7 18/19/7 1/20/7
f 1/21/9 3/22/9 5/23/9 7/24/9 9/25/9 11/26/9 13/27/9 15/28/9
f 2/29/10 4/30/10 17/31/10 18/32/10
f 4/30/10 6/33/10 19/34/10 17/31/10
f 6/33/10 8/35/10 20/36/10 19/34/10
f 8/35/10 10/37/10 21/38/10 20/36/10
f 10/37/10 12/39/10 22/40/10 21/38/10
f 12/39/10 14/41/10 23/42/10 22/40/10
f 14/41/10 16/43/10 24/44/10 23/42/10
f 16/43/10 2/29/10 18/32/10 24/44/10
f 25/45/10 26/15/10 32/16/10 31/46/10 30/47/10 29/48/10 28/49/10 27/50/10
f 14/46/6 12/47/6 30/47/6 31/46/6
f 10/48/4 8/49/4 28/49/4 29/48/4
f 6/50/2 4/45/2 25/45/2 27/50/2
f 16/16/8 14/46/8 31/46/8 32/16/8
f 12/47/5 10/48/5 29/48/5 30/47/5
f 8/49/3 6/50/3 27/50/3 28/49/3
f 4/45/1 2/15/1 26/15/1 25/45/1
f 33/1/11 50/2/11 49/3/11 35/4/11
f 35/4/12 49/3/12 51/5/12 37/6/12
f 37/6/13 51/5/13 52/7/13 39/8/13
f 39/8/14 52/7/14 53/9/14 41/10/14
f 41/10/15 53/9/15 54/11/15 43/12/15
f 43/12/16 54/11/16 55/13/16 45/14/16
f 34/15/17 48/16/17 64/16/17 58/15/17
f 45/14/18 55/13/18 56/17/18 47/18/18
f 47/18/17 56/17/17 50/19/17 33/20/17
f 33/21/9 35/22/9 37/23/9 39/24/9 41/25/9 43/26/9 45/27/9 47/28/9
f 34/29/10 36/30/10 49/31/10 50/32/10
f 36/30/10 38/33/10 51/34/10 49/31/10
f 38/33/10 40/35/10 52/36/10 51/34/10
f 40/35/10 42/37/10 53/38/10 52/36/10
f 42/37/10 44/39/10 54/40/10 53/38/10
f 44/39/10 46/41/10 55/42/10 54/40/10
f 46/41/10 48/43/10 56/44/10 55/42/10
f 48/43/10 34/29/10 50/32/10 56/44/10
f 57/45/10 58/15/10 64/16/10 63/46/10 62/47/10 61/48/10 60/49/10 59/50/10
f 46/46/16 44/47/16 62/47/16 63/46/16
f 42/48/14 40/49/14 60/49/14 61/48/14
f 38/50/12 36/45/12 57/45/12 59/50/12
f 48/16/18 46/46/18 63/46/18 64/16/18
f 44/47/15 42/48/15 61/48/15 62/47/15
f 40/49/13 38/50/13 59/50/13 60/49/13
f 36/45/11 34/15/11 58/15/11 57/45/11
f 65/1/11 82/2/11 81/3/11 67/4/11
f 67/4/12 81/3/12 83/5/12 69/6/12
f 69/6/13 83/5/13 84/7/13 71/8/13
f 71/8/14 84/7/14 85/9/14 73/10/14
f 73/10/15 85/9/15 86/11/15 75/12/15
f 75/12/16 86/11/16 87/13/16 77/14/16
f 66/15/17 80/16/17 96/16/17 90/15/17
f 77/14/18 87/13/18 88/17/18 79/18/18
f 79/18/17 88/17/17 82/19/17 65/20/17
f 65/21/9 67/22/9 69/23/9 71/24/9 73/25/9 75/26/9 77/27/9 79/28/9
f 66/29/10 68/30/10 81/31/10 82/32/10
f 68/30/10 70/33/10 83/34/10 81/31/10
f 70/33/10 72/35/10 84/36/10 83/34/10
f 72/35/10 74/37/10 85/38/10 84/36/10
f 74/37/10 76/39/10 86/40/10 85/38/10
f 76/39/10 78/41/10 87/42/10 86/40/10
f 78/41/10 80/43/10 88/44/10 87/42/10
f 80/43/10 66/29/10 82/32/10 88/44/10
f 89/45/10 90/15/10 96/16/10 95/46/10 94/47/10 93/48/10 92/49/10 91/50/10
f 78/46/16 76/47/16 94/47/16 95/46/16
f 74/48/14 72/49/14 92/49/14 93/48/14
f 70/50/12 68/45/12 89/45/12 91/50/12
f 80/16/18 78/46/18 95/46/18 96/16/18
f 76/47/15 74/48/15 93/48/15 94/47/15
f 72/49/13 70/50/13 91/50/13 92/49/13
f 68/45/11 66/15/11 90/15/11 89/45/11
