# Blender 4.1.1
# www.blender.org
mtllib barrel_1.mtl
o barrel_1
v -0.000000 -0.027075 -0.125543
v -0.000000 0.297389 -0.125543
v 0.062772 -0.027075 -0.108723
v 0.062772 0.297389 -0.108723
v 0.108723 -0.027075 -0.062772
v 0.108723 0.297389 -0.062772
v 0.125543 -0.027075 0.000000
v 0.125543 0.297389 0.000000
v 0.108723 -0.027075 0.062772
v 0.108723 0.297389 0.062772
v 0.062772 -0.027075 0.108723
v 0.062772 0.297389 0.108723
v -0.000000 -0.027075 0.125543
v -0.000000 0.297389 0.125543
v -0.062772 -0.027075 0.108723
v -0.062772 0.297389 0.108723
v -0.108723 -0.027075 0.062772
v -0.108723 0.297389 0.062772
v -0.125543 -0.027075 0.000000
v -0.125543 0.297389 0.000000
v -0.108723 -0.027075 -0.062772
v -0.108723 0.297389 -0.062772
v -0.062772 -0.027075 -0.108723
v -0.062772 0.297389 -0.108723
v -0.095996 0.237778 0.166271
v -0.100167 0.166759 0.173495
v -0.100167 0.103556 0.173495
v -0.095996 0.032536 0.166271
v -0.166271 0.237778 0.095996
v -0.173495 0.166759 0.100167
v -0.173495 0.103556 0.100167
v -0.166271 0.032536 0.095996
v -0.191993 0.237778 0.000000
v -0.200335 0.166759 0.000000
v -0.200335 0.103556 0.000000
v -0.191993 0.032536 0.000000
v -0.166271 0.237778 -0.095996
v -0.173495 0.166759 -0.100167
v -0.173495 0.103556 -0.100167
v -0.166271 0.032536 -0.095996
v -0.000000 0.166759 -0.200335
v -0.000000 0.237778 -0.191993
v -0.095996 0.237778 -0.166271
v -0.100167 0.166759 -0.173495
v -0.000000 0.032536 -0.191993
v -0.000000 0.103556 -0.200335
v -0.100167 0.103556 -0.173495
v -0.095996 0.032536 -0.166271
v -0.000000 0.103496 -0.180713
v -0.000000 0.032387 -0.173116
v -0.000000 0.237928 -0.173116
v -0.000000 0.166818 -0.180713
v 0.090356 0.166818 -0.156502
v 0.086558 0.237928 -0.149923
v 0.086558 0.032387 -0.149923
v 0.090356 0.103496 -0.156502
v 0.156502 0.166818 -0.090356
v 0.149923 0.237928 -0.086558
v 0.149923 0.032387 -0.086558
v 0.156502 0.103496 -0.090356
v 0.180713 0.166818 0.000000
v 0.173116 0.237928 0.000000
v 0.173116 0.032387 0.000000
v 0.180713 0.103496 0.000000
v 0.156502 0.166818 0.090356
v 0.149923 0.237928 0.086558
v 0.149923 0.032387 0.086558
v 0.156502 0.103496 0.090356
v 0.090356 0.166818 0.156502
v 0.086558 0.237928 0.149923
v 0.086558 0.032387 0.149923
v 0.090356 0.103496 0.156502
v -0.000000 0.166818 0.180713
v -0.000000 0.237928 0.173116
v -0.000000 0.032387 0.173116
v -0.000000 0.103496 0.180713
v -0.090356 0.166818 0.156502
v -0.086558 0.237928 0.149923
v -0.086558 0.032387 0.149923
v -0.090356 0.103496 0.156502
v -0.156502 0.166818 0.090356
v -0.149923 0.237928 0.086558
v -0.149923 0.032387 0.086558
v -0.156502 0.103496 0.090356
v -0.180713 0.166818 0.000000
v -0.173116 0.237928 0.000000
v -0.173116 0.032387 0.000000
v -0.180713 0.103496 0.000000
v -0.156502 0.166818 -0.090356
v -0.149923 0.237928 -0.086558
v -0.149923 0.032387 -0.086558
v -0.156502 0.103496 -0.090356
v -0.090356 0.166818 -0.156502
v -0.086558 0.237928 -0.149923
v -0.086558 0.032387 -0.149923
v -0.090356 0.103496 -0.156502
v -0.000000 0.032536 0.191993
v -0.000000 0.103556 0.200335
v -0.000000 0.166759 0.200335
v -0.000000 0.237778 0.191993
v 0.095996 0.032536 0.166271
v 0.100167 0.103556 0.173495
v 0.100167 0.166759 0.173495
v 0.095996 0.237778 0.166271
v 0.166271 0.032536 0.095996
v 0.173495 0.103556 0.100167
v 0.173495 0.166759 0.100167
v 0.166271 0.237778 0.095996
v 0.191993 0.032536 0.000000
v 0.200335 0.103556 0.000000
v 0.200335 0.166759 0.000000
v 0.191993 0.237778 0.000000
v 0.166271 0.032536 -0.095996
v 0.173495 0.103556 -0.100167
v 0.173495 0.166759 -0.100167
v 0.166271 0.237778 -0.095996
v 0.095996 0.032536 -0.166271
v 0.100167 0.103556 -0.173495
v 0.100167 0.166759 -0.173495
v 0.095996 0.237778 -0.166271
v -0.000000 -0.027075 -0.162232
v 0.081116 -0.027075 -0.140497
v 0.081116 0.297389 -0.140497
v -0.000000 0.297389 -0.162232
v 0.140497 -0.027075 -0.081116
v 0.140497 0.297389 -0.081116
v 0.162232 -0.027075 0.000000
v 0.162232 0.297389 0.000000
v 0.140497 -0.027075 0.081116
v 0.140497 0.297389 0.081116
v 0.081116 -0.027075 0.140497
v 0.081116 0.297389 0.140497
v -0.000000 -0.027075 0.162232
v -0.000000 0.297389 0.162232
v -0.081116 -0.027075 0.140497
v -0.081116 0.297389 0.140497
v -0.140497 -0.027075 0.081116
v -0.140497 0.297389 0.081116
v -0.162232 -0.027075 0.000000
v -0.162232 0.297389 0.000000
v -0.140497 -0.027075 -0.081116
v -0.140497 0.297389 -0.081116
v -0.081116 -0.027075 -0.140497
v -0.081116 0.297389 -0.140497
v -0.000000 0.000000 -0.125543
v 0.062772 0.000000 -0.108723
v 0.062772 0.270314 -0.108723
v -0.000000 0.270314 -0.125543
v 0.108723 0.000000 -0.062772
v 0.108723 0.270314 -0.062772
v 0.125543 0.000000 0.000000
v 0.125543 0.270314 0.000000
v 0.108723 0.000000 0.062772
v 0.108723 0.270314 0.062772
v 0.062772 0.000000 0.108723
v 0.062772 0.270314 0.108723
v -0.000000 0.000000 0.125543
v -0.000000 0.270314 0.125543
v -0.062772 0.000000 0.108723
v -0.062772 0.270314 0.108723
v -0.108723 0.000000 0.062772
v -0.108723 0.270314 0.062772
v -0.125543 0.000000 0.000000
v -0.125543 0.270314 0.000000
v -0.108723 0.000000 -0.062772
v -0.108723 0.270314 -0.062772
v -0.062772 0.000000 -0.108723
v -0.062772 0.270314 -0.108723
vn 0.6963 0.1741 -0.6963
vn 0.7071 -0.0000 -0.7071
vn 0.9659 -0.0000 -0.2588
vn 0.9659 -0.0000 0.2588
vn 0.7071 -0.0000 0.7071
vn 0.2588 -0.0000 0.9659
vn -0.2588 -0.0000 0.9659
vn -0.7071 -0.0000 0.7071
vn -0.9659 -0.0000 0.2588
vn -0.9659 -0.0000 -0.2588
vn 0.2549 0.1741 -0.9512
vn -0.7071 -0.0000 -0.7071
vn -0.2549 0.1741 -0.9512
vn -0.2572 -0.1127 -0.9598
vn -0.6963 -0.1741 -0.6963
vn -0.6963 0.1741 -0.6963
vn -0.9512 -0.1741 -0.2549
vn -0.9512 0.1741 -0.2549
vn -0.9512 -0.1741 0.2549
vn -0.9512 0.1741 0.2549
vn -0.6963 -0.1741 0.6963
vn -0.6963 0.1741 0.6963
vn -0.2549 -0.1741 0.9512
vn -0.2549 0.1741 0.9512
vn 0.2549 -0.1741 0.9512
vn 0.2549 0.1741 0.9512
vn 0.6963 -0.1741 0.6963
vn 0.6963 0.1741 0.6963
vn 0.9512 -0.1741 0.2549
vn 0.9512 0.1741 0.2549
vn 0.9512 -0.1741 -0.2549
vn 0.9512 0.1741 -0.2549
vn 0.6963 -0.1741 -0.6963
vn -0.2549 -0.1741 -0.9512
vn 0.2588 -0.0000 -0.9659
vn -0.0058 -1.0000 0.0058
vn 0.0008 1.0000 0.0030
vn -0.0008 1.0000 0.0030
vn 0.0079 1.0000 0.0021
vn 0.0022 1.0000 -0.0022
vn -0.0022 -1.0000 0.0022
vn 0.0021 -1.0000 0.0079
vn 0.0022 -1.0000 0.0022
vn 0.0058 1.0000 -0.0058
vn -0.0008 1.0000 -0.0030
vn -0.0058 1.0000 -0.0058
vn 0.0079 -1.0000 0.0021
vn 0.0030 -1.0000 -0.0008
vn -0.0030 1.0000 -0.0008
vn -0.0079 1.0000 0.0021
vn 0.0058 -1.0000 -0.0058
vn 0.0008 -1.0000 -0.0030
vn -0.0058 -1.0000 -0.0058
vn -0.0022 1.0000 0.0022
vn -0.0021 1.0000 0.0079
vn 0.0022 1.0000 0.0022
vn -0.0022 -1.0000 -0.0022
vn -0.0079 -1.0000 0.0021
vn 0.0058 1.0000 0.0058
vn 0.2549 -0.1741 -0.9512
vn -0.2572 0.1127 -0.9598
vn -0.7026 -0.1127 -0.7026
vn -0.7026 0.1127 -0.7026
vn -0.9598 -0.1127 -0.2572
vn -0.9598 0.1127 -0.2572
vn -0.9598 -0.1127 0.2572
vn -0.9598 0.1127 0.2572
vn -0.7026 -0.1127 0.7026
vn -0.7026 0.1127 0.7026
vn -0.2572 -0.1127 0.9598
vn -0.2572 0.1127 0.9598
vn 0.2572 -0.1127 0.9598
vn 0.2572 0.1127 0.9598
vn 0.7026 -0.1127 0.7026
vn 0.7026 0.1127 0.7026
vn 0.9598 -0.1127 0.2572
vn 0.9598 0.1127 0.2572
vn 0.9598 -0.1127 -0.2572
vn 0.9598 0.1127 -0.2572
vn 0.7026 -0.1127 -0.7026
vn 0.7026 0.1127 -0.7026
vn 0.2572 -0.1127 -0.9598
vn 0.2572 0.1127 -0.9598
vn -0.0030 -1.0000 -0.0008
vn 0.0030 1.0000 0.0008
vn 0.0021 1.0000 0.0079
vn 0.0021 -1.0000 -0.0079
vn -0.0079 -1.0000 -0.0021
vn -0.0008 -1.0000 -0.0030
vn 0.0021 1.0000 -0.0079
vn -0.0021 -1.0000 -0.0079
vn -0.0058 1.0000 0.0058
vn -0.0030 1.0000 0.0008
vn -0.0008 -1.0000 0.0030
vn 0.0022 -1.0000 -0.0022
vn 0.0079 -1.0000 -0.0021
vn -0.0079 1.0000 -0.0021
vn -0.0022 1.0000 -0.0022
vn -0.0021 1.0000 -0.0079
vn 0.0030 -1.0000 0.0008
vn 0.0058 -1.0000 0.0058
vn 0.0008 1.0000 -0.0030
vn 0.0079 1.0000 -0.0021
vn 0.0008 -1.0000 0.0030
vn -0.0021 -1.0000 0.0079
vn -0.0030 -1.0000 0.0008
vn 0.0030 1.0000 -0.0008
vn -0.2588 -0.0000 -0.9659
vn -0.0000 -1.0000 -0.0000
vn -0.0000 1.0000 -0.0000
vt 0.322840 0.934124
vt 0.326310 0.934124
vt 0.326310 0.936752
vt 0.322840 0.936752
vt 0.317227 0.934124
vt 0.319623 0.934124
vt 0.319623 0.936752
vt 0.317227 0.936752
vt 0.319623 0.939381
vt 0.317227 0.939381
vt 0.319623 0.942009
vt 0.317227 0.942009
vt 0.319623 0.944637
vt 0.317227 0.944637
vt 0.319623 0.947266
vt 0.317227 0.947266
vt 0.319623 0.949894
vt 0.317227 0.949894
vt 0.319623 0.952522
vt 0.317227 0.952522
vt 0.319623 0.955151
vt 0.317227 0.955151
vt 0.339290 0.937291
vt 0.339290 0.940323
vt 0.319623 0.957779
vt 0.317227 0.957779
vt 0.322840 0.931496
vt 0.326310 0.931496
vt 0.337774 0.949299
vt 0.335148 0.947783
vt 0.319623 0.960407
vt 0.317227 0.960407
vt 0.322840 0.960407
vt 0.326310 0.960407
vt 0.326310 0.963036
vt 0.322840 0.963036
vt 0.215664 0.835407
vt 0.215664 0.838036
vt 0.212447 0.838036
vt 0.212447 0.835407
vt 0.310540 0.957779
vt 0.314010 0.957779
vt 0.314010 0.960407
vt 0.310540 0.960407
vt 0.322840 0.957779
vt 0.326310 0.957779
vt 0.310540 0.955151
vt 0.314010 0.955151
vt 0.322840 0.955151
vt 0.326310 0.955151
vt 0.310540 0.952522
vt 0.314010 0.952522
vt 0.322840 0.952522
vt 0.326310 0.952522
vt 0.310540 0.949894
vt 0.314010 0.949894
vt 0.322840 0.949894
vt 0.326310 0.949894
vt 0.310540 0.947266
vt 0.314010 0.947266
vt 0.322840 0.947266
vt 0.326310 0.947266
vt 0.310540 0.944637
vt 0.314010 0.944637
vt 0.322840 0.944637
vt 0.326310 0.944637
vt 0.310540 0.942009
vt 0.314010 0.942009
vt 0.322840 0.942009
vt 0.326310 0.942009
vt 0.310540 0.939381
vt 0.314010 0.939381
vt 0.322840 0.939381
vt 0.326310 0.939381
vt 0.310540 0.936752
vt 0.314010 0.936752
vt 0.310540 0.934124
vt 0.314010 0.934124
vt 0.314010 0.963036
vt 0.310540 0.963036
vt 0.317227 0.931496
vt 0.319623 0.931496
vt 0.212447 0.827522
vt 0.212447 0.824894
vt 0.215664 0.806496
vt 0.215664 0.809124
vt 0.221277 0.814381
vt 0.221277 0.817009
vt 0.215664 0.824894
vt 0.215664 0.827522
vt 0.218060 0.811752
vt 0.218060 0.809124
vt 0.212447 0.822266
vt 0.212447 0.819637
vt 0.218060 0.835407
vt 0.218060 0.832779
vt 0.221277 0.809124
vt 0.221277 0.811752
vt 0.215664 0.819637
vt 0.215664 0.822266
vt 0.221277 0.832779
vt 0.221277 0.835407
vt 0.212447 0.817009
vt 0.212447 0.814381
vt 0.218060 0.830151
vt 0.218060 0.827522
vt 0.215664 0.814381
vt 0.215664 0.817009
vt 0.221277 0.827522
vt 0.221277 0.830151
vt 0.212447 0.811752
vt 0.212447 0.809124
vt 0.218060 0.824894
vt 0.218060 0.822266
vt 0.212447 0.832779
vt 0.215664 0.811752
vt 0.221277 0.822266
vt 0.221277 0.824894
vt 0.215664 0.832779
vt 0.218060 0.819637
vt 0.218060 0.817009
vt 0.212447 0.830151
vt 0.221277 0.819637
vt 0.310540 0.931496
vt 0.314010 0.931496
vt 0.221277 0.838036
vt 0.218060 0.838036
vt 0.215664 0.830151
vt 0.218060 0.814381
vt 0.212447 0.806496
vt 0.221277 0.806496
vt 0.218060 0.806496
vt 0.319623 0.963036
vt 0.317227 0.963036
vt 0.339290 0.954957
vt 0.337774 0.957583
vt 0.338984 0.958793
vt 0.340943 0.955400
vt 0.337774 0.934665
vt 0.335148 0.933149
vt 0.335591 0.931496
vt 0.338984 0.933455
vt 0.339290 0.951925
vt 0.340943 0.951482
vt 0.332116 0.933149
vt 0.331673 0.931496
vt 0.338984 0.948088
vt 0.329490 0.934665
vt 0.328279 0.933455
vt 0.335591 0.946129
vt 0.327974 0.937291
vt 0.326320 0.936848
vt 0.332116 0.947783
vt 0.331673 0.946129
vt 0.327974 0.940323
vt 0.326320 0.940766
vt 0.329490 0.949299
vt 0.328279 0.948088
vt 0.329490 0.942949
vt 0.328279 0.944160
vt 0.327974 0.951925
vt 0.326320 0.951482
vt 0.332116 0.944465
vt 0.331673 0.946119
vt 0.327974 0.954957
vt 0.326320 0.955400
vt 0.335148 0.944465
vt 0.335591 0.946119
vt 0.329490 0.957583
vt 0.328279 0.958793
vt 0.337774 0.942949
vt 0.338984 0.944160
vt 0.332116 0.959099
vt 0.331673 0.960753
vt 0.340943 0.940766
vt 0.335148 0.959099
vt 0.335591 0.960753
vt 0.340943 0.936848
vt 0.098820 0.942915
vt 0.101446 0.944431
vt 0.102962 0.947057
vt 0.102962 0.950089
vt 0.101446 0.952715
vt 0.098820 0.954231
vt 0.095788 0.954231
vt 0.093162 0.952715
vt 0.091645 0.950089
vt 0.091645 0.947057
vt 0.093162 0.944431
vt 0.095788 0.942915
vt 0.101446 0.967349
vt 0.102962 0.964723
vt 0.102962 0.961690
vt 0.101446 0.959065
vt 0.098820 0.957548
vt 0.095788 0.957548
vt 0.093162 0.959065
vt 0.091645 0.961690
vt 0.091645 0.964723
vt 0.093162 0.967349
vt 0.095788 0.968865
vt 0.098820 0.968865
s 0
usemtl texture
f 54/1/1 123/2/1 126/3/1 58/4/1
f 56/5/2 53/6/2 57/7/2 60/8/2
f 60/8/3 57/7/3 61/9/3 64/10/3
f 64/10/4 61/9/4 65/11/4 68/12/4
f 68/12/5 65/11/5 69/13/5 72/14/5
f 72/14/6 69/13/6 73/15/6 76/16/6
f 76/16/7 73/15/7 77/17/7 80/18/7
f 80/18/8 77/17/8 81/19/8 84/20/8
f 84/20/9 81/19/9 85/21/9 88/22/9
f 24/23/5 22/24/5 166/24/5 168/23/5
f 88/22/10 85/21/10 89/25/10 92/26/10
f 51/27/11 124/28/11 123/2/11 54/1/11
f 7/29/10 9/30/10 153/30/10 151/29/10
f 92/26/12 89/25/12 93/31/12 96/32/12
f 94/33/13 144/34/13 124/35/13 51/36/13
f 47/37/14 46/38/14 45/39/14 48/40/14
f 141/41/15 91/42/15 95/43/15 143/44/15
f 90/45/16 142/46/16 144/34/16 94/33/16
f 139/47/17 87/48/17 91/42/17 141/41/17
f 86/49/18 140/50/18 142/46/18 90/45/18
f 137/51/19 83/52/19 87/48/19 139/47/19
f 82/53/20 138/54/20 140/50/20 86/49/20
f 135/55/21 79/56/21 83/52/21 137/51/21
f 78/57/22 136/58/22 138/54/22 82/53/22
f 133/59/23 75/60/23 79/56/23 135/55/23
f 74/61/24 134/62/24 136/58/24 78/57/24
f 131/63/25 71/64/25 75/60/25 133/59/25
f 70/65/26 132/66/26 134/62/26 74/61/26
f 129/67/27 67/68/27 71/64/27 131/63/27
f 66/69/28 130/70/28 132/66/28 70/65/28
f 127/71/29 63/72/29 67/68/29 129/67/29
f 62/73/30 128/74/30 130/70/30 66/69/30
f 125/75/31 59/76/31 63/72/31 127/71/31
f 58/4/32 126/3/32 128/74/32 62/73/32
f 122/77/33 55/78/33 59/76/33 125/75/33
f 143/44/34 95/43/34 50/79/34 121/80/34
f 49/81/35 52/82/35 53/6/35 56/5/35
f 83/83/36 79/84/36 28/84/36 32/83/36
f 96/37/37 49/38/37 46/38/37 47/37/37
f 49/85/38 56/86/38 118/86/38 46/85/38
f 62/87/39 66/88/39 108/88/39 112/87/39
f 80/89/40 84/90/40 31/90/40 27/89/40
f 57/91/41 53/92/41 119/92/41 115/91/41
f 75/93/42 71/94/42 101/94/42 97/93/42
f 93/95/43 89/96/43 38/96/43 44/95/43
f 54/97/44 58/98/44 116/98/44 120/97/44
f 72/99/45 76/100/45 98/100/45 102/99/45
f 90/101/46 94/102/46 43/102/46 37/101/46
f 67/103/47 63/104/47 109/104/47 105/103/47
f 85/105/48 81/106/48 30/106/48 34/105/48
f 64/107/49 68/108/49 106/108/49 110/107/49
f 82/109/50 86/110/50 33/110/50 29/109/50
f 59/111/51 55/112/51 117/112/51 113/111/51
f 77/113/52 73/114/52 99/114/52 26/113/52
f 95/40/53 91/115/53 40/115/53 48/40/53
f 56/86/54 60/116/54 114/116/54 118/86/54
f 74/117/55 78/118/55 25/118/55 100/117/55
f 92/119/56 96/37/56 47/37/56 39/119/56
f 69/120/57 65/121/57 107/121/57 103/120/57
f 87/122/58 83/83/58 32/83/58 36/122/58
f 66/88/59 70/123/59 104/123/59 108/88/59
f 121/124/60 50/125/60 55/78/60 122/77/60
f 43/102/61 42/126/61 41/127/61 44/95/61
f 39/119/62 47/37/62 48/40/62 40/115/62
f 37/101/63 43/102/63 44/95/63 38/96/63
f 35/128/64 39/119/64 40/115/64 36/122/64
f 33/110/65 37/101/65 38/96/65 34/105/65
f 31/90/66 35/128/66 36/122/66 32/83/66
f 29/109/67 33/110/67 34/105/67 30/106/67
f 27/89/68 31/90/68 32/83/68 28/84/68
f 25/118/69 29/109/69 30/106/69 26/113/69
f 98/100/70 27/89/70 28/84/70 97/93/70
f 100/117/71 25/118/71 26/113/71 99/114/71
f 102/99/72 98/100/72 97/93/72 101/94/72
f 104/123/73 100/117/73 99/114/73 103/120/73
f 106/108/74 102/99/74 101/94/74 105/103/74
f 108/88/75 104/123/75 103/120/75 107/121/75
f 110/107/76 106/108/76 105/103/76 109/104/76
f 112/87/77 108/88/77 107/121/77 111/129/77
f 114/116/78 110/107/78 109/104/78 113/111/78
f 116/98/79 112/87/79 111/129/79 115/91/79
f 118/86/80 114/116/80 113/111/80 117/112/80
f 120/97/81 116/98/81 115/91/81 119/92/81
f 46/85/82 118/86/82 117/112/82 45/130/82
f 42/131/83 120/97/83 119/92/83 41/132/83
f 65/121/84 61/129/84 111/129/84 107/121/84
f 88/128/85 92/119/85 39/119/85 35/128/85
f 70/123/86 74/117/86 100/117/86 104/123/86
f 55/112/87 50/130/87 45/130/87 117/112/87
f 91/115/88 87/122/88 36/122/88 40/115/88
f 73/114/89 69/120/89 103/120/89 99/114/89
f 51/131/90 54/97/90 120/97/90 42/131/90
f 50/39/91 95/40/91 48/40/91 45/39/91
f 78/118/92 82/109/92 29/109/92 25/118/92
f 60/116/93 64/107/93 110/107/93 114/116/93
f 53/92/94 52/132/94 41/132/94 119/92/94
f 81/106/95 77/113/95 26/113/95 30/106/95
f 63/104/96 59/111/96 113/111/96 109/104/96
f 86/110/97 90/101/97 37/101/97 33/110/97
f 68/108/98 72/99/98 102/99/98 106/108/98
f 94/102/99 51/126/99 42/126/99 43/102/99
f 89/96/100 85/105/100 34/105/100 38/96/100
f 71/94/101 67/103/101 105/103/101 101/94/101
f 76/100/102 80/89/102 27/89/102 98/100/102
f 58/98/103 62/87/103 112/87/103 116/98/103
f 52/127/104 93/95/104 44/95/104 41/127/104
f 79/84/105 75/93/105 97/93/105 28/84/105
f 61/129/106 57/91/106 115/91/106 111/129/106
f 84/90/107 88/128/107 35/128/107 31/90/107
f 96/32/108 93/31/108 52/133/108 49/134/108
f 3/135/109 1/136/109 121/137/109 122/138/109
f 2/139/110 4/140/110 123/141/110 124/142/110
f 5/143/109 3/135/109 122/138/109 125/144/109
f 4/140/110 6/145/110 126/146/110 123/141/110
f 7/29/109 5/143/109 125/144/109 127/147/109
f 6/145/110 8/148/110 128/149/110 126/146/110
f 9/30/109 7/29/109 127/147/109 129/150/109
f 8/148/110 10/151/110 130/152/110 128/149/110
f 11/153/109 9/30/109 129/150/109 131/154/109
f 10/151/110 12/155/110 132/156/110 130/152/110
f 13/157/109 11/153/109 131/154/109 133/158/109
f 12/155/110 14/159/110 134/160/110 132/156/110
f 15/161/109 13/157/109 133/158/109 135/162/109
f 14/159/110 16/163/110 136/164/110 134/160/110
f 17/165/109 15/161/109 135/162/109 137/166/109
f 16/163/110 18/167/110 138/168/110 136/164/110
f 19/169/109 17/165/109 137/166/109 139/170/109
f 18/167/110 20/171/110 140/172/110 138/168/110
f 21/173/109 19/169/109 139/170/109 141/174/109
f 20/171/110 22/24/110 142/175/110 140/172/110
f 23/176/109 21/173/109 141/174/109 143/177/109
f 22/24/110 24/23/110 144/178/110 142/175/110
f 1/136/109 23/176/109 143/177/109 121/137/109
f 24/23/110 2/139/110 124/142/110 144/178/110
f 147/179/110 148/180/110 168/181/110 166/182/110 164/183/110 162/184/110 160/185/110 158/186/110 156/187/110 154/188/110 152/189/110 150/190/110
f 145/191/109 146/192/109 149/193/109 151/194/109 153/195/109 155/196/109 157/197/109 159/198/109 161/199/109 163/200/109 165/201/109 167/202/109
f 15/161/2 17/165/2 161/165/2 159/161/2
f 10/151/10 8/148/10 152/148/10 154/151/10
f 23/176/6 1/136/6 145/136/6 167/176/6
f 1/136/7 3/135/7 146/135/7 145/136/7
f 18/167/2 16/163/2 160/163/2 162/167/2
f 9/30/12 11/153/12 155/153/12 153/30/12
f 2/139/6 24/23/6 168/23/6 148/139/6
f 4/140/7 2/139/7 148/139/7 147/140/7
f 17/165/3 19/169/3 163/169/3 161/165/3
f 12/155/12 10/151/12 154/151/12 156/155/12
f 3/135/8 5/143/8 149/143/8 146/135/8
f 20/171/3 18/167/3 162/167/3 164/171/3
f 11/153/108 13/157/108 157/157/108 155/153/108
f 6/145/8 4/140/8 147/140/8 150/145/8
f 19/169/4 21/173/4 165/173/4 163/169/4
f 14/159/108 12/155/108 156/155/108 158/159/108
f 5/143/9 7/29/9 151/29/9 149/143/9
f 22/24/4 20/171/4 164/171/4 166/24/4
f 13/157/35 15/161/35 159/161/35 157/157/35
f 8/148/9 6/145/9 150/145/9 152/148/9
f 21/173/5 23/176/5 167/176/5 165/173/5
f 16/163/35 14/159/35 158/159/35 160/163/35
