# Blender 4.1.1
# www.blender.org
mtllib chair.mtl
o chair
v -0.137697 0.056471 0.135099
v -0.137697 0.056471 -0.134362
v -0.137697 0.091893 0.135099
v -0.137697 0.091893 -0.134362
v -0.176444 0.056471 0.135099
v -0.210032 0.056471 0.034253
v -0.200194 0.056471 0.105562
v -0.210032 0.056471 -0.033516
v -0.176444 0.056471 -0.134362
v -0.200194 0.056471 -0.104825
v -0.176444 0.091893 -0.134362
v -0.210032 0.091893 -0.033516
v -0.200194 0.091893 -0.104825
v -0.210032 0.091893 0.034253
v -0.176444 0.091893 0.135099
v -0.200194 0.091893 0.105562
v -0.136698 0.056471 0.135099
v -0.066042 0.056471 0.135099
v -0.136698 0.056471 -0.134362
v -0.066042 0.056471 -0.134362
v -0.136698 0.091893 -0.134362
v -0.136698 0.091893 0.135099
v -0.066042 0.091893 0.135099
v -0.066042 0.091893 -0.134362
v -0.065018 0.056471 0.135099
v 0.005756 0.056471 0.135099
v -0.065018 0.056471 -0.134362
v 0.005756 0.056471 -0.134362
v -0.065018 0.091893 -0.134362
v -0.065018 0.091893 0.135099
v 0.005756 0.091893 0.135099
v 0.005756 0.091893 -0.134362
v 0.041471 0.092341 -0.047839
v 0.041471 0.092341 -0.137588
v 0.041471 -0.177120 -0.047839
v 0.041471 -0.177120 -0.137588
v 0.006049 -0.177120 -0.047839
v 0.006049 0.092341 -0.047839
v 0.006049 0.092341 -0.137588
v 0.006049 -0.177120 -0.137588
v 0.041471 0.092341 0.137160
v 0.041471 0.092341 0.047411
v 0.041471 -0.177120 0.137160
v 0.041471 -0.177120 0.047411
v 0.006049 -0.177120 0.137160
v 0.006049 0.092341 0.137160
v 0.006049 0.092341 0.047411
v 0.006049 -0.177120 0.047411
v 0.041471 0.092341 0.044670
v 0.041471 0.092341 -0.045078
v 0.041471 -0.177120 0.044670
v 0.041471 -0.177120 -0.045078
v 0.006049 -0.177120 0.044670
v 0.006049 0.092341 0.044670
v 0.006049 0.092341 -0.045078
v 0.006049 -0.177120 -0.045078
v 0.169095 0.086825 -0.085601
v 0.041858 0.075702 -0.085601
v 0.169095 0.046331 -0.085601
v 0.041858 0.035209 -0.085601
v 0.169095 0.086825 -0.126095
v 0.041858 0.075702 -0.126095
v 0.169095 0.046331 -0.126095
v 0.041858 0.035209 -0.126095
v 0.169095 0.086825 0.085180
v 0.041858 0.075702 0.085180
v 0.169095 0.046331 0.085180
v 0.041858 0.035209 0.085180
v 0.169095 0.086825 0.125673
v 0.041858 0.075702 0.125673
v 0.169095 0.046331 0.125673
v 0.041858 0.035209 0.125673
v 0.169095 -0.171604 -0.085601
v 0.041858 -0.160481 -0.085601
v 0.169095 -0.131110 -0.085601
v 0.041858 -0.119987 -0.085601
v 0.169095 -0.171604 -0.126095
v 0.041858 -0.160481 -0.126095
v 0.169095 -0.131110 -0.126095
v 0.041858 -0.119987 -0.126095
v 0.169095 -0.171604 0.085180
v 0.041858 -0.160481 0.085180
v 0.169095 -0.131110 0.085180
v 0.041858 -0.119987 0.085180
v 0.169095 -0.171604 0.125673
v 0.041858 -0.160481 0.125673
v 0.169095 -0.131110 0.125673
v 0.041858 -0.119987 0.125673
vn -0.0000 -0.0000 1.0000
vn -0.0000 1.0000 -0.0000
vn -0.0000 -0.0000 -1.0000
vn 1.0000 -0.0000 -0.0000
vn -0.0000 -1.0000 -0.0000
vn -0.9906 -0.0000 -0.1367
vn -0.7793 -0.0000 -0.6266
vn -0.9906 -0.0000 0.1367
vn -0.7793 -0.0000 0.6266
vn -1.0000 -0.0000 -0.0000
vn 0.0871 -0.9962 -0.0000
vn -0.0871 0.9962 -0.0000
vn 0.0871 0.9962 -0.0000
vn -0.0871 -0.9962 -0.0000
vt 0.322723 0.915461
vt 0.322723 0.913384
vt 0.323965 0.916703
vt 0.322844 0.916582
vt 0.326041 0.913384
vt 0.326041 0.915461
vt 0.325920 0.916582
vt 0.324799 0.916703
vt 0.322723 0.916709
vt 0.322723 0.920028
vt 0.326041 0.920028
vt 0.326041 0.916709
vt 0.326048 0.913384
vt 0.326048 0.916703
vt 0.329366 0.916703
vt 0.329366 0.913384
vt 0.326048 0.916709
vt 0.326048 0.920028
vt 0.329366 0.920028
vt 0.329366 0.916709
vt 0.322723 0.920034
vt 0.322723 0.923353
vt 0.326041 0.923353
vt 0.326041 0.920034
vt 0.329373 0.913384
vt 0.329373 0.916703
vt 0.332691 0.916703
vt 0.332691 0.913384
vt 0.330202 0.916709
vt 0.331032 0.916709
vt 0.331032 0.917539
vt 0.330202 0.917539
vt 0.331032 0.918369
vt 0.330202 0.918369
vt 0.331032 0.919198
vt 0.330202 0.919198
vt 0.331032 0.920028
vt 0.330202 0.920028
vt 0.329373 0.918369
vt 0.329373 0.919198
vt 0.331862 0.918369
vt 0.331862 0.919198
vt 0.326877 0.920034
vt 0.326877 0.920864
vt 0.327707 0.920864
vt 0.327707 0.920034
vt 0.326877 0.921694
vt 0.327707 0.921694
vt 0.326877 0.922523
vt 0.327707 0.922523
vt 0.326877 0.923353
vt 0.327707 0.923353
vt 0.326048 0.921694
vt 0.326048 0.922523
vt 0.328537 0.922523
vt 0.328537 0.921694
vt 0.329373 0.920034
vt 0.329373 0.920864
vt 0.330202 0.920864
vt 0.330202 0.920034
vt 0.329373 0.921694
vt 0.330202 0.921694
vt 0.329373 0.922523
vt 0.330202 0.922523
vt 0.329373 0.923353
vt 0.330202 0.923353
vt 0.328543 0.921694
vt 0.328543 0.922523
vt 0.331032 0.922523
vt 0.331032 0.921694
vt 0.331868 0.920034
vt 0.332698 0.920034
vt 0.332698 0.920864
vt 0.331868 0.920864
vt 0.332698 0.921694
vt 0.331868 0.921694
vt 0.332698 0.922523
vt 0.331868 0.922523
vt 0.332698 0.923353
vt 0.331868 0.923353
vt 0.331038 0.921694
vt 0.331038 0.922523
vt 0.333527 0.921694
vt 0.333527 0.922523
s 0
usemtl texture
f 5/1/1 1/2/1 3/2/1 15/1/1
f 14/3/2 16/4/2 15/1/2 3/2/2 4/5/2 11/6/2 13/7/2 12/8/2
f 2/5/3 9/6/3 11/6/3 4/5/3
f 1/2/4 2/5/4 4/5/4 3/2/4
f 5/1/5 7/4/5 6/3/5 8/8/5 10/7/5 9/6/5 2/5/5 1/2/5
f 8/8/6 12/8/6 13/7/6 10/7/6
f 10/7/7 13/7/7 11/6/7 9/6/7
f 14/3/8 6/3/8 7/4/8 16/4/8
f 16/4/9 7/4/9 5/1/9 15/1/9
f 8/8/10 6/3/10 14/3/10 12/8/10
f 17/9/5 19/10/5 20/11/5 18/12/5
f 22/9/2 23/12/2 24/11/2 21/10/2
f 20/11/3 19/10/3 21/10/3 24/11/3
f 17/9/1 18/12/1 23/12/1 22/9/1
f 18/12/4 20/11/4 24/11/4 23/12/4
f 19/10/10 17/9/10 22/9/10 21/10/10
f 25/13/5 27/14/5 28/15/5 26/16/5
f 30/13/2 31/16/2 32/15/2 29/14/2
f 28/15/3 27/14/3 29/14/3 32/15/3
f 25/13/1 26/16/1 31/16/1 30/13/1
f 26/16/4 28/15/4 32/15/4 31/16/4
f 27/14/10 25/13/10 30/13/10 29/14/10
f 33/17/4 35/18/4 36/19/4 34/20/4
f 38/17/10 39/20/10 40/19/10 37/18/10
f 36/19/5 35/18/5 37/18/5 40/19/5
f 33/17/2 34/20/2 39/20/2 38/17/2
f 34/20/3 36/19/3 40/19/3 39/20/3
f 35/18/1 33/17/1 38/17/1 37/18/1
f 41/21/4 43/22/4 44/23/4 42/24/4
f 46/21/10 47/24/10 48/23/10 45/22/10
f 44/23/5 43/22/5 45/22/5 48/23/5
f 41/21/2 42/24/2 47/24/2 46/21/2
f 42/24/3 44/23/3 48/23/3 47/24/3
f 43/22/1 41/21/1 46/21/1 45/22/1
f 49/25/4 51/26/4 52/27/4 50/28/4
f 54/25/10 55/28/10 56/27/10 53/26/10
f 52/27/5 51/26/5 53/26/5 56/27/5
f 49/25/2 50/28/2 55/28/2 54/25/2
f 50/28/3 52/27/3 56/27/3 55/28/3
f 51/26/1 49/25/1 54/25/1 53/26/1
f 57/29/1 58/30/1 60/31/1 59/32/1
f 59/32/11 60/31/11 64/33/11 63/34/11
f 63/34/3 64/33/3 62/35/3 61/36/3
f 61/36/12 62/35/12 58/37/12 57/38/12
f 59/39/4 63/34/4 61/36/4 57/40/4
f 64/33/10 60/41/10 58/42/10 62/35/10
f 65/43/3 67/44/3 68/45/3 66/46/3
f 67/44/11 71/47/11 72/48/11 68/45/11
f 71/47/1 69/49/1 70/50/1 72/48/1
f 69/49/12 65/51/12 66/52/12 70/50/12
f 67/53/4 65/54/4 69/49/4 71/47/4
f 72/48/10 70/50/10 66/55/10 68/56/10
f 73/57/1 75/58/1 76/59/1 74/60/1
f 75/58/13 79/61/13 80/62/13 76/59/13
f 79/61/3 77/63/3 78/64/3 80/62/3
f 77/63/14 73/65/14 74/66/14 78/64/14
f 75/67/4 73/68/4 77/63/4 79/61/4
f 80/62/10 78/64/10 74/69/10 76/70/10
f 81/71/3 82/72/3 84/73/3 83/74/3
f 83/74/13 84/73/13 88/75/13 87/76/13
f 87/76/1 88/75/1 86/77/1 85/78/1
f 85/78/14 86/77/14 82/79/14 81/80/14
f 83/81/4 87/76/4 85/78/4 81/82/4
f 88/75/10 84/83/10 82/84/10 86/77/10
