# Blender 4.1.1
# www.blender.org
mtllib plate.mtl
o plate
v 0.000000 -0.011675 -0.108519
v -0.063786 -0.011675 -0.087794
v -0.103208 -0.011675 -0.033534
v -0.103208 -0.011675 0.033534
v -0.063786 -0.011675 0.087794
v 0.000000 -0.011675 0.108519
v 0.063786 -0.011675 0.087794
v 0.103208 -0.011675 0.033534
v 0.103208 -0.011675 -0.033534
v 0.063786 -0.011675 -0.087794
v -0.054316 0.008821 -0.074759
v 0.000000 0.008821 -0.092408
v -0.087885 0.008821 -0.028556
v -0.087885 0.008821 0.028556
v -0.054316 0.008821 0.074759
v 0.000000 0.008821 0.092408
v 0.054316 0.008821 0.074759
v 0.087885 0.008821 0.028556
v 0.087885 0.008821 -0.028556
v 0.054316 0.008821 -0.074759
v -0.069211 0.008821 -0.095260
v 0.000000 0.008821 -0.117748
v -0.111985 0.008821 -0.036386
v -0.111985 0.008821 0.036386
v -0.069211 0.008821 0.095260
v 0.000000 0.008821 0.117748
v 0.069211 0.008821 0.095260
v 0.111985 0.008821 0.036386
v 0.111985 0.008821 -0.036386
v 0.069211 0.008821 -0.095260
v -0.054316 -0.005967 -0.074759
v 0.000000 -0.005967 -0.092408
v -0.087885 -0.005967 -0.028556
v -0.087885 -0.005967 0.028556
v -0.054316 -0.005967 0.074759
v 0.000000 -0.005967 0.092408
v 0.054316 -0.005967 0.074759
v 0.087885 -0.005967 0.028556
v 0.087885 -0.005967 -0.028556
v 0.054316 -0.005967 -0.074759
vn -0.0000 -1.0000 -0.0000
vn 0.3090 -0.0000 -0.9511
vn 0.7437 -0.3937 0.5403
vn -0.7437 -0.3937 0.5403
vn -0.2841 -0.3937 -0.8743
vn 0.9193 -0.3937 -0.0000
vn -0.2841 -0.3937 0.8743
vn -0.7437 -0.3937 -0.5403
vn 0.7437 -0.3937 -0.5403
vn 0.2841 -0.3937 0.8743
vn -0.9193 -0.3937 -0.0000
vn 0.2841 -0.3937 -0.8743
vn -0.0000 1.0000 -0.0000
vn 0.8090 -0.0000 0.5878
vn -0.8090 -0.0000 0.5878
vn -0.3090 -0.0000 -0.9511
vn 1.0000 -0.0000 -0.0000
vn -0.3090 -0.0000 0.9511
vn -0.8090 -0.0000 -0.5878
vn 0.8090 -0.0000 -0.5878
vn 0.3090 -0.0000 0.9511
vn -1.0000 -0.0000 -0.0000
vt 0.466797 0.832031
s 0
usemtl texture
f 2/1/1 1/1/1 10/1/1 9/1/1 8/1/1 7/1/1 6/1/1 5/1/1 4/1/1 3/1/1
f 15/1/2 16/1/2 36/1/2 35/1/2
f 7/1/3 8/1/3 28/1/3 27/1/3
f 4/1/4 5/1/4 25/1/4 24/1/4
f 1/1/5 2/1/5 21/1/5 22/1/5
f 8/1/6 9/1/6 29/1/6 28/1/6
f 5/1/7 6/1/7 26/1/7 25/1/7
f 2/1/8 3/1/8 23/1/8 21/1/8
f 9/1/9 10/1/9 30/1/9 29/1/9
f 6/1/10 7/1/10 27/1/10 26/1/10
f 3/1/11 4/1/11 24/1/11 23/1/11
f 10/1/12 1/1/12 22/1/12 30/1/12
f 11/1/13 12/1/13 22/1/13 21/1/13
f 13/1/13 11/1/13 21/1/13 23/1/13
f 14/1/13 13/1/13 23/1/13 24/1/13
f 15/1/13 14/1/13 24/1/13 25/1/13
f 16/1/13 15/1/13 25/1/13 26/1/13
f 17/1/13 16/1/13 26/1/13 27/1/13
f 18/1/13 17/1/13 27/1/13 28/1/13
f 19/1/13 18/1/13 28/1/13 29/1/13
f 20/1/13 19/1/13 29/1/13 30/1/13
f 12/1/13 20/1/13 30/1/13 22/1/13
f 31/1/13 33/1/13 34/1/13 35/1/13 36/1/13 37/1/13 38/1/13 39/1/13 40/1/13 32/1/13
f 11/1/14 13/1/14 33/1/14 31/1/14
f 19/1/15 20/1/15 40/1/15 39/1/15
f 16/1/16 17/1/16 37/1/16 36/1/16
f 13/1/17 14/1/17 34/1/17 33/1/17
f 20/1/18 12/1/18 32/1/18 40/1/18
f 17/1/19 18/1/19 38/1/19 37/1/19
f 14/1/20 15/1/20 35/1/20 34/1/20
f 12/1/21 11/1/21 31/1/21 32/1/21
f 18/1/22 19/1/22 39/1/22 38/1/22
