# Blender 4.1.1
# www.blender.org
mtllib wood_box.mtl
o wood_box
v -0.188699 -0.078147 0.133988
v -0.188699 -0.006009 0.133988
v -0.188699 -0.078147 0.102198
v -0.188699 -0.006009 0.102198
v 0.214848 -0.078147 0.133988
v 0.214848 -0.078147 0.102198
v 0.214848 -0.006009 0.102198
v -0.195729 -0.078147 -0.126471
v -0.195729 -0.006009 -0.126471
v -0.195729 -0.078147 -0.158261
v -0.195729 -0.006009 -0.158261
v 0.214848 -0.078147 -0.126471
v 0.214848 -0.006009 -0.126471
v 0.214848 -0.078147 -0.158261
v 0.214848 -0.006009 -0.158261
v -0.195729 0.000284 0.133988
v -0.195729 0.000284 0.102198
v -0.195729 0.072421 0.102198
v 0.214848 0.000284 0.133988
v 0.214848 0.072421 0.133988
v 0.214848 0.000284 0.102198
v 0.214848 0.072421 0.102198
v -0.191595 0.070824 -0.126984
v -0.191595 0.001405 -0.157576
v -0.191595 0.070824 -0.157576
v 0.221602 0.000284 -0.126471
v 0.221602 0.072421 -0.126471
v 0.221602 0.000284 -0.158261
v 0.221602 0.072421 -0.158261
v 0.194411 -0.078147 0.102344
v 0.194411 -0.006009 0.102344
v 0.172063 -0.078147 0.102344
v 0.172063 -0.006009 0.102344
v 0.194411 -0.078147 -0.126617
v 0.194411 -0.006009 -0.126617
v 0.172063 -0.078147 -0.126617
v 0.172063 -0.006009 -0.126617
v -0.152944 -0.078147 0.102344
v -0.152944 -0.006009 0.102344
v -0.175291 -0.078147 0.102344
v -0.175291 -0.006009 0.102344
v -0.152944 -0.078147 -0.126617
v -0.152944 -0.006009 -0.126617
v -0.175291 -0.078147 -0.126617
v -0.175291 -0.006009 -0.126617
v 0.194411 0.000284 0.102344
v 0.194411 0.072421 0.102344
v 0.172063 0.000284 0.102344
v 0.172063 0.072421 0.102344
v 0.194411 0.000284 -0.126617
v 0.194411 0.072421 -0.126617
v 0.172063 0.000284 -0.126617
v 0.172063 0.072421 -0.126617
v -0.152944 0.000284 0.102344
v -0.152944 0.072421 0.102344
v -0.175291 0.000284 0.102344
v -0.175291 0.072421 0.102344
v -0.152944 0.000284 -0.126617
v -0.152944 0.072421 -0.126617
v -0.175291 0.000284 -0.126617
v -0.175291 0.072421 -0.126617
v -0.180349 0.072421 0.133988
v -0.195729 0.072421 0.123687
v -0.195729 0.065648 0.133988
v -0.049242 0.072421 -0.126471
v -0.041822 0.000284 -0.158261
v -0.022245 0.072421 -0.150698
v -0.002494 0.072421 -0.158261
v -0.017915 0.061865 -0.158261
v -0.032274 0.072421 -0.158261
v 0.193098 -0.006009 0.133988
v 0.214848 -0.016085 0.133988
v 0.214848 -0.006009 0.123912
v -0.038484 -0.006009 0.102198
v -0.007299 -0.078147 0.133988
v -0.066458 -0.006009 0.133988
v -0.072125 -0.006009 0.130300
v -0.082293 -0.006009 0.133988
v -0.067964 -0.014944 0.133988
v -0.191188 0.000284 -0.126471
v -0.191595 0.005775 -0.126984
v -0.191595 0.001405 -0.131354
v -0.154681 -0.068463 0.104326
v 0.173713 -0.068463 0.104326
v -0.154681 -0.068463 -0.128165
v 0.173713 -0.068463 -0.128165
v -0.154681 -0.059609 -0.128165
v -0.154681 -0.059609 0.104326
v 0.173713 -0.059609 0.104326
v 0.173713 -0.059609 -0.128165
v -0.014203 0.000284 0.133988
v 0.030505 0.072421 0.102198
v -0.006621 0.072421 0.133988
v 0.009872 0.049752 0.133988
v 0.046511 0.072421 0.133988
v 0.025853 0.072421 0.117602
vn -1.0000 -0.0000 -0.0000
vn -0.0000 -0.0000 -1.0000
vn -0.0000 -1.0000 -0.0000
vn 1.0000 -0.0000 -0.0000
vn -0.0000 -0.0000 1.0000
vn -0.0000 1.0000 -0.0000
vn -0.0012 0.0012 1.0000
vn -0.3453 0.7842 0.5156
vn -0.0042 0.0003 -1.0000
vn -0.0000 0.5824 -0.8129
vn -0.0101 0.9999 -0.0027
vn 0.3113 0.6720 0.6720
vn -0.0000 0.3816 0.9243
vn -0.9954 -0.0675 0.0675
vn -0.0025 -1.0000 -0.0064
vn -0.0000 0.5858 0.8105
vt 0.334877 0.951438
vt 0.335483 0.951438
vt 0.335483 0.952044
vt 0.334877 0.952044
vt 0.335483 0.952276
vt 0.335483 0.952650
vt 0.334877 0.952650
vt 0.334271 0.952650
vt 0.334877 0.953256
vt 0.334549 0.953256
vt 0.334271 0.953256
vt 0.335483 0.953064
vt 0.335398 0.953256
vt 0.332449 0.953866
vt 0.333055 0.953866
vt 0.333055 0.954472
vt 0.332449 0.954472
vt 0.333055 0.955078
vt 0.332449 0.955078
vt 0.333055 0.955684
vt 0.332449 0.955684
vt 0.333055 0.956290
vt 0.332449 0.956290
vt 0.331843 0.955078
vt 0.331843 0.955684
vt 0.333661 0.955078
vt 0.333661 0.955684
vt 0.334094 0.957580
vt 0.334522 0.958008
vt 0.334347 0.958184
vt 0.334174 0.958088
vt 0.333855 0.957819
vt 0.334951 0.956723
vt 0.335379 0.957151
vt 0.335143 0.957388
vt 0.334951 0.957580
vt 0.334522 0.957151
vt 0.335379 0.956294
vt 0.335732 0.956648
vt 0.335637 0.956894
vt 0.334094 0.956723
vt 0.333855 0.957341
vt 0.333665 0.957151
vt 0.336343 0.956900
vt 0.336343 0.957506
vt 0.335953 0.957506
vt 0.335737 0.957506
vt 0.335737 0.956939
vt 0.335744 0.956900
vt 0.336949 0.957506
vt 0.336949 0.957827
vt 0.336805 0.957856
vt 0.336343 0.957896
vt 0.336949 0.956900
vt 0.337332 0.956381
vt 0.337370 0.956294
vt 0.337938 0.956294
vt 0.337938 0.956900
vt 0.337332 0.956900
vt 0.334271 0.953866
vt 0.334877 0.953866
vt 0.334877 0.954472
vt 0.334271 0.954472
vt 0.334877 0.955078
vt 0.334271 0.955078
vt 0.334877 0.955684
vt 0.334271 0.955684
vt 0.334877 0.956290
vt 0.334271 0.956290
vt 0.333665 0.955078
vt 0.333665 0.955684
vt 0.335483 0.955078
vt 0.335483 0.955684
vt 0.336094 0.953866
vt 0.336700 0.953866
vt 0.336700 0.954472
vt 0.336094 0.954472
vt 0.336700 0.955078
vt 0.336094 0.955078
vt 0.336700 0.955684
vt 0.336094 0.955684
vt 0.336700 0.956290
vt 0.336094 0.956290
vt 0.335488 0.955078
vt 0.335488 0.955684
vt 0.337305 0.955078
vt 0.337305 0.955684
vt 0.336700 0.951438
vt 0.337305 0.951438
vt 0.337305 0.952044
vt 0.336700 0.952044
vt 0.337305 0.952650
vt 0.336700 0.952650
vt 0.337305 0.953256
vt 0.336700 0.953256
vt 0.337305 0.953862
vt 0.336700 0.953862
vt 0.336094 0.952650
vt 0.336094 0.953256
vt 0.337911 0.952650
vt 0.337911 0.953256
vt 0.332449 0.956294
vt 0.333055 0.956294
vt 0.333055 0.956900
vt 0.332449 0.956900
vt 0.333055 0.957506
vt 0.332449 0.957506
vt 0.333055 0.958112
vt 0.332449 0.958112
vt 0.333055 0.958718
vt 0.332449 0.958718
vt 0.331843 0.957506
vt 0.331843 0.958112
vt 0.333661 0.957506
vt 0.333661 0.958112
vt 0.337310 0.956270
vt 0.337952 0.955473
vt 0.337310 0.953866
vt 0.337938 0.957142
vt 0.337849 0.957163
vt 0.337332 0.957128
vt 0.337328 0.956900
vt 0.337292 0.957418
vt 0.337270 0.957506
vt 0.337943 0.956950
vt 0.338017 0.956824
vt 0.337943 0.956294
vt 0.338023 0.956338
vt 0.337372 0.957773
vt 0.337332 0.957312
vt 0.337347 0.957167
vt 0.337588 0.957167
vt 0.337588 0.957773
vt 0.335515 0.953256
vt 0.334877 0.953584
vt 0.335408 0.953673
vt 0.335483 0.953694
vt 0.335483 0.953862
vt 0.334877 0.953862
vt 0.335483 0.953288
vt 0.335483 0.953671
vt 0.335922 0.953256
vt 0.335907 0.953185
vt 0.335857 0.952650
vt 0.336089 0.952650
vt 0.336089 0.953256
vt 0.335898 0.953256
vt 0.337916 0.953159
vt 0.338543 0.953776
vt 0.338543 0.951438
vt 0.336949 0.956294
vt 0.336949 0.956522
vt 0.336343 0.956301
vt 0.336429 0.956294
vt 0.331843 0.951438
vt 0.331843 0.953862
vt 0.334267 0.953862
vt 0.334267 0.951438
vt 0.074031 0.935813
vt 0.076454 0.935813
vt 0.076454 0.938237
vt 0.074031 0.938237
vt 0.335143 0.957772
vt 0.334940 0.957985
vt 0.334698 0.958184
vt 0.334291 0.958239
vt 0.334110 0.958421
vt 0.334019 0.958362
vt 0.333665 0.958008
vt 0.334753 0.958239
vt 0.335379 0.958008
vt 0.335121 0.958266
vt 0.334935 0.958421
s 0
usemtl texture
f 1/1/1 2/2/1 4/3/1 3/4/1
f 3/4/2 4/3/2 74/5/2 7/6/2 6/7/2
f 3/8/3 6/7/3 5/9/3 75/10/3 1/11/3
f 6/7/4 7/6/4 73/12/4 72/13/4 5/9/4
f 8/14/1 9/15/1 11/16/1 10/17/1
f 10/17/2 11/16/2 15/18/2 14/19/2
f 14/19/4 15/18/4 13/20/4 12/21/4
f 12/21/5 13/20/5 9/22/5 8/23/5
f 10/24/3 14/19/3 12/21/3 8/25/3
f 15/18/6 11/26/6 9/27/6 13/20/6
f 19/28/5 20/29/5 95/30/5 94/31/5 91/32/5
f 17/33/2 18/34/2 92/35/2 22/36/2 21/37/2
f 21/37/4 22/36/4 20/29/4 19/28/4
f 16/38/1 64/39/1 63/40/1 18/34/1 17/33/1
f 17/41/3 21/37/3 19/28/3 91/42/3 16/43/3
f 26/44/7 27/45/7 65/46/7 23/47/7 81/48/7 80/49/7
f 29/50/6 68/51/6 67/52/6 65/53/6 27/45/6
f 28/54/4 29/50/4 27/45/4 26/44/4
f 82/55/1 81/56/1 23/57/1 25/58/1 24/59/1
f 30/60/5 31/61/5 33/62/5 32/63/5
f 32/63/1 33/62/1 37/64/1 36/65/1
f 36/65/2 37/64/2 35/66/2 34/67/2
f 34/67/4 35/66/4 31/68/4 30/69/4
f 32/70/3 36/65/3 34/67/3 30/71/3
f 37/64/6 33/72/6 31/73/6 35/66/6
f 38/74/5 39/75/5 41/76/5 40/77/5
f 40/77/1 41/76/1 45/78/1 44/79/1
f 44/79/2 45/78/2 43/80/2 42/81/2
f 42/81/4 43/80/4 39/82/4 38/83/4
f 40/84/3 44/79/3 42/81/3 38/85/3
f 45/78/6 41/86/6 39/87/6 43/80/6
f 46/88/5 47/89/5 49/90/5 48/91/5
f 48/91/1 49/90/1 53/92/1 52/93/1
f 52/93/2 53/92/2 51/94/2 50/95/2
f 50/95/4 51/94/4 47/96/4 46/97/4
f 48/98/3 52/93/3 50/95/3 46/99/3
f 53/92/6 49/100/6 47/101/6 51/94/6
f 54/102/5 55/103/5 57/104/5 56/105/5
f 56/105/1 57/104/1 61/106/1 60/107/1
f 60/107/2 61/106/2 59/108/2 58/109/2
f 58/109/4 59/108/4 55/110/4 54/111/4
f 56/112/3 60/107/3 58/109/3 54/113/3
f 61/106/6 57/114/6 55/115/6 59/108/6
f 62/116/8 63/117/8 64/118/8
f 24/59/9 25/58/9 70/119/9 69/120/9 66/121/9
f 66/122/2 69/123/2 68/124/2 29/50/2 28/54/2
f 67/125/10 68/126/10 69/127/10 70/128/10
f 65/129/11 67/130/11 70/131/11 25/132/11 23/133/11
f 71/134/12 72/13/12 73/12/12
f 75/135/5 79/136/5 78/137/5 2/138/5 1/139/5
f 5/9/5 72/13/5 71/140/5 76/141/5 79/136/5 75/135/5
f 78/142/6 77/143/6 74/144/6 4/145/6 2/146/6
f 76/141/13 77/143/13 78/142/13 79/136/13
f 7/6/6 74/144/6 77/143/6 76/147/6 71/134/6 73/12/6
f 80/148/14 81/149/14 82/150/14
f 24/151/15 66/152/15 28/54/15 26/44/15 80/153/15 82/154/15
f 83/155/3 85/156/3 86/157/3 84/158/3
f 88/159/6 89/160/6 90/161/6 87/162/6
f 86/157/2 85/156/2 87/156/2 90/157/2
f 83/155/5 84/158/5 89/158/5 88/155/5
f 84/158/4 86/157/4 90/157/4 89/158/4
f 85/156/1 83/155/1 88/155/1 87/156/1
f 22/36/6 92/163/6 96/164/6 95/165/6 20/29/6
f 91/32/5 94/31/5 93/166/5 62/167/5 64/168/5 16/169/5
f 93/170/16 94/31/16 95/30/16 96/164/16
f 93/170/6 96/164/6 92/163/6 18/171/6 63/172/6 62/173/6
